HIERARCHY
ROOT Hips
{
	OFFSET 0.000000 0.000000 0.000000
	CHANNELS 6 Xposition Yposition Zposition Xrotation Yrotation Zrotation
	JOINT LeftUpLeg_virtual
	{
		OFFSET 0.000000 0.000000 0.000000
		CHANNELS 3 Xrotation Yrotation Zrotation
		JOINT LeftUpLeg
		{
			OFFSET 13.026900 -6.336304 -1.092800
			CHANNELS 3 Xrotation Yrotation Zrotation
			JOINT LeftLeg
			{
				OFFSET 0.524474 -46.096886 9.782700
				CHANNELS 3 Xrotation Yrotation Zrotation
				JOINT LeftFoot
				{
					OFFSET -0.524474 -53.427422 -12.948200
					CHANNELS 3 Xrotation Yrotation Zrotation
					JOINT LeftToeBase
					{
						OFFSET 0.192200 -14.009700 16.364100
						CHANNELS 3 Xrotation Yrotation Zrotation
						JOINT LeftToe_End
						{
							OFFSET -1.784700 -0.561700 9.474800
							CHANNELS 3 Xrotation Yrotation Zrotation
							End Site
							{
								OFFSET 0 0 0
							}
						}
					}
				}
			}
		}
	}
	JOINT RightUpLeg_virtual
	{
		OFFSET 0.000000 0.000000 0.000000
		CHANNELS 3 Xrotation Yrotation Zrotation
		JOINT RightUpLeg
		{
			OFFSET -12.883000 -6.336304 -1.092800
			CHANNELS 3 Xrotation Yrotation Zrotation
			JOINT RightLeg
			{
				OFFSET -0.524587 -46.096825 9.782800
				CHANNELS 3 Xrotation Yrotation Zrotation
				JOINT RightFoot
				{
					OFFSET 0.524587 -53.427383 -12.948300
					CHANNELS 3 Xrotation Yrotation Zrotation
					JOINT RightToeBase
					{
						OFFSET -0.192200 -14.009700 16.364100
						CHANNELS 3 Xrotation Yrotation Zrotation
						JOINT RightToe_End
						{
							OFFSET 1.784700 -0.561700 9.474800
							CHANNELS 3 Xrotation Yrotation Zrotation
							End Site
							{
								OFFSET 0 0 0
							}
						}
					}
				}
			}
		}
	}
	JOINT Spine_virtual
	{
		OFFSET 0.000000 0.000000 0.000000
		CHANNELS 3 Xrotation Yrotation Zrotation
		JOINT Spine
		{
			OFFSET 0.072000 7.257294 -0.789700
			CHANNELS 3 Xrotation Yrotation Zrotation
			JOINT Spine1
			{
				OFFSET 0.000000 12.508769 -0.658067
				CHANNELS 3 Xrotation Yrotation Zrotation
				JOINT Spine1_split
				{
					OFFSET 0.000000 12.508769 -0.658067
					CHANNELS 3 Xrotation Yrotation Zrotation
					JOINT Spine2
					{
						OFFSET 0.000000 12.508769 -0.658067
						CHANNELS 3 Xrotation Yrotation Zrotation
						JOINT Neck_virtual
						{
							OFFSET 0.000000 0.000000 0.000000
							CHANNELS 3 Xrotation Yrotation Zrotation
							JOINT Neck
							{
								OFFSET 0.000000 14.033295 7.520400
								CHANNELS 3 Xrotation Yrotation Zrotation
								JOINT Head
								{
									OFFSET 0.000000 8.198502 5.703100
									CHANNELS 3 Xrotation Yrotation Zrotation
									JOINT HeadTop_End
									{
										OFFSET 0.000000 17.760803 13.332701
										CHANNELS 3 Xrotation Yrotation Zrotation
										End Site
										{
											OFFSET 0 0 0
										}
									}
								}
							}
						}
						JOINT LeftShoulder_virtual
						{
							OFFSET 0.000000 0.000000 0.000000
							CHANNELS 3 Xrotation Yrotation Zrotation
							JOINT LeftShoulder
							{
								OFFSET 6.292450 5.785301 -0.669000
								CHANNELS 3 Xrotation Yrotation Zrotation
								JOINT LeftShoulder_split
								{
									OFFSET 6.292450 5.785301 -0.669000
									CHANNELS 3 Xrotation Yrotation Zrotation
									JOINT LeftArm
									{
										OFFSET 13.907140 -6.093903 1.965100
										CHANNELS 3 Xrotation Yrotation Zrotation
										JOINT LeftForeArm
										{
											OFFSET 34.140198 0.000000 0.000000
											CHANNELS 3 Xrotation Yrotation Zrotation
											JOINT LeftHand
											{
												OFFSET 40.960209 0.000000 0.000000
												CHANNELS 3 Xrotation Yrotation Zrotation
												End Site
												{
													OFFSET 0 0 0
												}
											}
										}
									}
								}
							}
						}
						JOINT RightShoulder_virtual
						{
							OFFSET 0.000000 0.000000 0.000000
							CHANNELS 3 Xrotation Yrotation Zrotation
							JOINT RightShoulder
							{
								OFFSET -6.292450 5.785301 -0.669000
								CHANNELS 3 Xrotation Yrotation Zrotation
								JOINT RightShoulder_split
								{
									OFFSET -6.292450 5.785301 -0.669000
									CHANNELS 3 Xrotation Yrotation Zrotation
									JOINT RightArm
									{
										OFFSET -13.907140 -6.093903 1.965100
										CHANNELS 3 Xrotation Yrotation Zrotation
										JOINT RightForeArm
										{
											OFFSET -34.140198 0.000000 0.000000
											CHANNELS 3 Xrotation Yrotation Zrotation
											JOINT RightHand
											{
												OFFSET -40.960209 0.000000 0.000000
												CHANNELS 3 Xrotation Yrotation Zrotation
												End Site
												{
													OFFSET 0 0 0
												}
											}
										}
									}
								}
							}
						}
					}
				}
			}
		}
	}
}
MOTION
Frames: 9
Frame Time: 0.03333333
5.594674 171.604767 14.521526 0.000000 0.000000 0.000000 9.594440 -31.402662 4.226255 -80.541297 -5.051352 26.483502 68.101200 -11.136937 5.950841 22.653624 6.210407 -12.988107 -6.984475 2.603844 -1.941269 0.000000 0.000000 0.000000 9.299047 -31.425765 3.770308 -111.521505 -17.100301 -8.740900 96.696825 11.982696 -4.187218 28.994208 14.927078 29.346738 11.049503 -15.412834 -18.638908 0.000000 0.000000 0.000000 11.628805 -25.396231 4.974392 23.610502 0.799964 -10.808224 15.221987 -3.946935 -0.736938 0.242981 0.095060 0.051635 0.000000 0.000000 0.000000 16.197520 -1.952096 -1.179333 2.120935 1.099006 -3.986053 -13.974850 46.695469 -20.873104 0.000000 0.000000 0.000000 16.864435 -3.533948 -2.420396 13.455900 -15.360964 -0.635951 2.517145 -4.175616 -1.584545 -71.262587 -19.475788 5.050694 43.661554 -0.233085 20.633081 0.000000 0.000000 0.000000 20.922133 -2.170652 -1.352010 4.742972 21.082362 -9.565378 8.242215 6.323974 1.985564 -49.253437 6.129581 5.812611 -57.295015 44.452118 31.634236 0.000000 0.000000 0.000000 
5.666567 171.499222 14.374952 0.000000 0.000000 0.000000 9.721553 -31.600731 4.283082 -80.664056 -5.134847 26.499577 68.195587 -11.199780 6.027757 22.736928 6.241884 -13.146103 -6.954714 2.560281 -1.955019 0.000000 0.000000 0.000000 9.392092 -31.579154 3.833403 -111.315117 -17.186793 -8.926762 96.492794 12.135015 -4.301807 28.874679 15.077991 29.284805 11.042847 -15.410630 -18.687041 0.000000 0.000000 0.000000 11.671153 -25.563347 5.040035 23.350219 0.908718 -10.734747 15.235102 -3.917900 -0.717867 0.239379 0.121658 0.051571 0.000000 0.000000 0.000000 16.238624 -1.930960 -1.206635 2.330689 1.004325 -4.178735 -13.225941 45.925714 -21.462604 0.000000 0.000000 0.000000 16.856545 -3.520385 -2.460246 13.292358 -15.573309 -1.292471 2.638154 -4.234646 -1.664127 -70.183568 -19.053899 5.163703 43.765359 -0.451248 20.517591 0.000000 0.000000 0.000000 20.999833 -2.137023 -1.353378 4.505454 20.954156 -8.866519 8.277787 6.276347 2.092688 -48.038619 6.401740 5.874990 -56.690167 44.390229 30.878087 0.000000 0.000000 0.000000 
5.723931 171.400421 14.213921 0.000000 0.000000 0.000000 9.861294 -31.760704 4.384853 -80.707906 -5.164849 26.498124 68.176121 -11.235551 6.053024 22.744568 6.337973 -13.233339 -6.965013 2.510946 -1.956622 0.000000 0.000000 0.000000 9.509959 -31.688164 3.936402 -111.050311 -17.263896 -9.119818 96.234586 12.288246 -4.436939 28.719221 15.192453 29.273579 10.980689 -15.393098 -18.711488 0.000000 0.000000 0.000000 11.719081 -25.691644 5.124354 23.091932 0.986680 -10.685261 15.198563 -3.894222 -0.694703 0.237824 0.141956 0.050270 0.000000 0.000000 0.000000 16.241456 -1.908595 -1.236957 2.506562 0.877507 -4.373348 -12.514233 45.081390 -21.966722 0.000000 0.000000 0.000000 16.822904 -3.503848 -2.476353 13.212042 -15.674999 -1.794246 2.695142 -4.266354 -1.853626 -69.021445 -18.574508 5.426040 43.894402 -0.697685 20.474662 0.000000 0.000000 0.000000 21.027144 -2.110134 -1.362387 4.308526 20.755644 -8.238081 8.277593 6.260773 2.337338 -46.786847 6.393836 5.670059 -56.253288 44.294098 30.336118 0.000000 0.000000 0.000000 
5.766212 171.313934 14.041151 0.000000 0.000000 0.000000 10.021012 -31.875099 4.545167 -80.674486 -5.130376 26.485585 68.030569 -11.253483 6.013305 22.673055 6.480645 -13.250424 -6.998111 2.457938 -1.937415 0.000000 0.000000 0.000000 9.646372 -31.756247 4.087961 -110.744557 -17.325420 -9.318825 95.932958 12.429928 -4.581689 28.527233 15.256870 29.304937 10.921323 -15.368836 -18.706456 0.000000 0.000000 0.000000 11.763151 -25.782325 5.242256 22.859113 1.034799 -10.663344 15.114355 -3.870791 -0.670912 0.244896 0.158382 0.055955 0.000000 0.000000 0.000000 16.200457 -1.877142 -1.275311 2.617607 0.725442 -4.543000 -11.792813 44.231991 -22.446297 0.000000 0.000000 0.000000 16.757692 -3.476155 -2.473035 13.203089 -15.704854 -2.199143 2.642906 -4.248403 -2.148938 -67.815883 -17.955662 5.751745 44.105984 -0.981021 20.555309 0.000000 0.000000 0.000000 20.993259 -2.082475 -1.382476 4.145749 20.515090 -7.635411 8.337078 6.365169 2.635592 -45.598626 6.176588 5.333627 -55.960816 44.176318 29.983653 0.000000 0.000000 0.000000 
5.777312 171.244507 13.874695 0.000000 0.000000 0.000000 10.185502 -31.945710 4.757120 -80.585577 -5.039104 26.473361 67.774963 -11.274465 5.910257 22.531645 6.632325 -13.235878 -7.012676 2.407490 -1.898208 0.000000 0.000000 0.000000 9.792920 -31.801706 4.288836 -110.423784 -17.365290 -9.521591 95.637087 12.546618 -4.721005 28.317486 15.259136 29.355292 10.915015 -15.346049 -18.670397 0.000000 0.000000 0.000000 11.801991 -25.843100 5.391629 22.671257 1.061682 -10.663255 14.980384 -3.840268 -0.645481 0.254333 0.172628 0.061721 0.000000 0.000000 0.000000 16.108129 -1.831110 -1.317272 2.650686 0.562615 -4.677518 -11.023849 43.429396 -22.972359 0.000000 0.000000 0.000000 16.650832 -3.431912 -2.450681 13.233408 -15.694163 -2.588313 2.534579 -4.149211 -2.419927 -66.637463 -17.119818 6.100934 44.463435 -1.339474 20.778781 0.000000 0.000000 0.000000 20.892376 -2.046696 -1.412450 3.994736 20.260339 -7.020624 8.457297 6.558474 2.909179 -44.472502 5.826895 4.922464 -55.819386 44.098058 29.814834 0.000000 0.000000 0.000000 
5.763703 171.194489 13.711710 0.000000 0.000000 0.000000 10.344593 -31.993234 4.998006 -80.474259 -4.901477 26.466963 67.455809 -11.311404 5.761103 22.351577 6.757563 -13.220238 -6.979702 2.365033 -1.843838 0.000000 0.000000 0.000000 9.940734 -31.829477 4.518873 -110.118639 -17.379490 -9.727752 95.375819 12.642603 -4.846333 28.115331 15.224434 29.422443 10.970591 -15.328649 -18.617629 0.000000 0.000000 0.000000 11.840731 -25.895837 5.563436 22.537751 1.077616 -10.666011 14.803028 -3.801721 -0.609978 0.264970 0.177237 0.070791 0.000000 0.000000 0.000000 15.961355 -1.771640 -1.352153 2.603831 0.401031 -4.779917 -10.199667 42.721740 -23.580364 0.000000 0.000000 0.000000 16.491644 -3.367411 -2.407272 13.274480 -15.639772 -3.031719 2.361608 -4.004868 -2.609046 -65.560616 -16.029356 6.459327 44.973312 -1.760367 21.137684 0.000000 0.000000 0.000000 20.729457 -2.002319 -1.442381 3.841117 20.005737 -6.346940 8.636979 6.743716 3.056441 -43.434532 5.347596 4.454992 -55.843067 44.122189 29.827081 0.000000 0.000000 0.000000 
5.728574 171.172394 13.570553 0.000000 0.000000 0.000000 10.496307 -32.024694 5.237673 -80.354341 -4.734596 26.464072 67.117940 -11.362676 5.586357 22.147331 6.848227 -13.231360 -6.886323 2.337337 -1.787921 0.000000 0.000000 0.000000 10.087810 -31.863072 4.755205 -109.879186 -17.356936 -9.936047 95.169561 12.729693 -4.953645 27.960781 15.193737 29.515802 11.070489 -15.315982 -18.563556 0.000000 0.000000 0.000000 11.887117 -25.947752 5.741710 22.453992 1.086019 -10.645688 14.579696 -3.759447 -0.558508 0.270740 0.178880 0.069316 0.000000 0.000000 0.000000 15.761116 -1.705797 -1.368369 2.512229 0.255534 -4.866986 -9.340934 42.128515 -24.276620 0.000000 0.000000 0.000000 16.280924 -3.293215 -2.342907 13.305716 -15.491994 -3.550594 2.143733 -3.813341 -2.735346 -64.647064 -14.636146 6.834759 45.552324 -2.193341 21.570772 0.000000 0.000000 0.000000 20.503774 -1.950885 -1.450321 3.672299 19.740761 -5.639535 8.803722 6.846239 3.065906 -42.423432 4.702629 3.955769 -56.030108 44.301864 30.007169 0.000000 0.000000 0.000000 
5.675504 171.182938 13.451235 0.000000 0.000000 0.000000 10.628418 -32.055615 5.450125 -80.199788 -4.551955 26.458302 66.774272 -11.407529 5.408494 21.895082 6.925641 -13.258133 -6.738049 2.327113 -1.745390 0.000000 0.000000 0.000000 10.239450 -31.906163 4.978134 -109.711000 -17.295326 -10.127244 95.020110 12.816199 -5.043492 27.872713 15.195784 29.628920 11.194225 -15.306268 -18.514998 0.000000 0.000000 0.000000 11.956184 -26.009133 5.913277 22.404900 1.087247 -10.584298 14.315969 -3.721673 -0.488796 0.268037 0.175544 0.056536 0.000000 0.000000 0.000000 15.506534 -1.646375 -1.352778 2.417298 0.139041 -4.961666 -8.517726 41.686034 -25.008437 0.000000 0.000000 0.000000 16.024585 -3.221513 -2.262654 13.317125 -15.188466 -4.132007 1.910955 -3.599216 -2.759273 -63.957721 -12.970709 7.218648 46.138806 -2.602336 22.028245 0.000000 0.000000 0.000000 20.236648 -1.900060 -1.425882 3.496457 19.465554 -4.929819 8.852316 6.899044 2.980079 -41.408114 3.799097 3.394009 -56.411933 44.660049 30.386422 0.000000 0.000000 0.000000 
5.619220 171.226593 13.353075 0.000000 0.000000 0.000000 10.755864 -32.092709 5.629058 -79.980484 -4.372970 26.428597 66.424935 -11.421066 5.253427 21.559033 7.017575 -13.263695 -6.572417 2.331683 -1.724122 0.000000 0.000000 0.000000 10.392872 -31.956949 5.168408 -109.598049 -17.203703 -10.286941 94.900629 12.903617 -5.108327 27.852350 15.238454 29.743753 11.320255 -15.296659 -18.471074 0.000000 0.000000 0.000000 12.054343 -26.077835 6.075469 22.373285 1.073581 -10.479167 14.026469 -3.697930 -0.408101 0.261571 0.165448 0.046282 0.000000 0.000000 0.000000 15.223008 -1.605188 -1.302614 2.369366 0.052040 -5.077757 -7.768029 41.415805 -25.739011 0.000000 0.000000 0.000000 15.727492 -3.167398 -2.181996 13.315388 -14.672279 -4.713608 1.638705 -3.421149 -2.734995 -63.466726 -11.072842 7.635908 46.651295 -2.929585 22.466572 0.000000 0.000000 0.000000 19.939344 -1.859880 -1.363965 3.336755 19.172869 -4.283188 8.833882 7.005800 2.787121 -40.472839 2.535471 2.772316 -56.987024 45.155518 30.966397 0.000000 0.000000 0.000000 
